<svg width="58" height="16" viewBox="0 0 58 16" fill="none" xmlns="http://www.w3.org/2000/svg">
<path d="M5.25035 9.38072C5.2144 10.2384 4.48685 10.9043 3.62919 10.9043H0V10.6732C0 10.5568 0.0941519 10.4609 0.212272 10.4609H3.66172C4.3071 10.4609 4.82922 9.92681 4.81039 9.27801C4.79156 8.65317 4.26259 8.16358 3.63775 8.16358H0.00171094V7.93247C0.00171094 7.81606 0.0958655 7.72191 0.213985 7.72191H3.56756C4.15303 7.72191 4.62893 7.25114 4.6392 6.6691C4.64947 6.06994 4.14276 5.57863 3.5436 5.57863H0.215696C0.0992883 5.57863 0.0034245 5.48448 0.0034245 5.36636V5.13525H3.53846C4.37557 5.13525 5.07745 5.80289 5.08258 6.64C5.08601 7.16726 4.81724 7.63289 4.41152 7.90679C4.92851 8.18583 5.27602 8.7439 5.25035 9.38072Z" fill="black"/>
<path d="M12.3238 5.34753C12.3238 5.23112 12.418 5.13525 12.5361 5.13525H12.7895V8.75417C12.7895 9.97817 11.7829 10.9711 10.5538 10.9471C9.35201 10.9248 8.40192 9.91825 8.40192 8.71651V5.13525H8.65527C8.77168 5.13525 8.86755 5.22941 8.86755 5.34753V8.72336C8.86755 9.66661 9.6105 10.4609 10.5538 10.4832C11.5261 10.5054 12.3238 9.72139 12.3238 8.75589V5.34753Z" fill="black"/>
<path d="M16.7456 5.13525V10.6972C16.7456 10.8136 16.6515 10.9077 16.5351 10.9077H16.2732V5.34753C16.2732 5.23112 16.3673 5.13697 16.4837 5.13697H16.7456V5.13525Z" fill="black"/>
<path d="M29.7423 6.01171C30.2729 6.55267 30.5657 7.26652 30.5657 8.02146C30.5657 8.7764 30.2729 9.49026 29.7423 10.0312C29.2133 10.5705 28.5029 10.8803 27.7445 10.9026H27.7377L25.7313 10.9043V10.6715C25.7313 10.555 25.8255 10.4609 25.9419 10.4609L27.7342 10.4592C29.0712 10.4181 30.1189 9.34817 30.1189 8.01975C30.1189 6.69304 29.0712 5.6214 27.7342 5.58032L25.9419 5.57689C25.8255 5.57689 25.7313 5.48274 25.7313 5.36633V5.13351L27.7428 5.13694C28.5046 5.16262 29.2133 5.47247 29.7423 6.01171Z" fill="black"/>
<path d="M32.5823 10.6543C32.5823 10.4849 32.7209 10.3462 32.8904 10.3462C33.0599 10.3462 33.1986 10.4849 33.1986 10.6543C33.1986 10.8238 33.0599 10.9625 32.8904 10.9625C32.7209 10.9625 32.5823 10.8238 32.5823 10.6543Z" fill="black"/>
<path d="M41.181 8.01291C41.181 9.67515 39.8287 11.0258 38.1681 11.0258C36.5076 11.0258 35.1552 9.67344 35.1552 8.01291C35.1552 6.35239 36.5076 5 38.1681 5C39.8304 5.00171 41.181 6.35239 41.181 8.01291ZM40.7188 8.01291C40.7188 6.60746 39.5753 5.46221 38.1681 5.46221C36.7627 5.46221 35.6174 6.60575 35.6174 8.01291C35.6174 9.42008 36.761 10.5636 38.1681 10.5636C39.5753 10.5636 40.7188 9.42008 40.7188 8.01291Z" fill="black"/>
<path d="M44.6973 8.74733C44.6973 8.86374 44.6031 8.9596 44.4867 8.9596H44.2145V5.13525H44.4935C44.5603 5.13525 44.6236 5.16778 44.663 5.22085L48.3607 10.2007V5.35266C48.3607 5.23625 48.4548 5.14039 48.573 5.14039H48.8452V10.9129H48.3932C48.3265 10.9129 48.2631 10.8803 48.2237 10.8273L44.6973 6.14527V8.74733Z" fill="black"/>
<path d="M52.2107 5.34752C52.2107 5.23112 52.3048 5.13696 52.423 5.13696H57.42V5.38005C57.42 5.49646 57.3258 5.59061 57.2094 5.59061H52.2124V5.34752H52.2107ZM57.4182 7.96328C57.4182 8.07969 57.3241 8.17556 57.206 8.17556L52.209 8.17727V7.93418C52.209 7.81777 52.3031 7.72362 52.4213 7.72362L57.4182 7.72191V7.96328ZM52.2107 10.7126V10.4695H57.2077C57.3241 10.4695 57.4182 10.5636 57.4182 10.6818V10.9248H52.4213C52.3066 10.9231 52.2107 10.829 52.2107 10.7126Z" fill="black"/>
<path d="M23.7781 10.6732C23.7781 10.5568 23.6942 10.4609 23.5897 10.4609H22.9769C22.8896 10.4609 22.8023 10.4541 22.7167 10.4438C21.58 10.3 20.6967 9.26089 20.6967 8.04203V5.34753C20.6967 5.23112 20.6025 5.13525 20.4844 5.13525H20.2225V8.04203C20.2225 9.5365 21.3386 10.7673 22.7561 10.8923C22.828 10.8992 22.9016 10.9043 22.9752 10.9043H22.994H22.9957H23.7763V10.6732H23.7781Z" fill="black"/>
</svg>
