<svg width="201" height="40" viewBox="0 0 201 40" fill="none" xmlns="http://www.w3.org/2000/svg">
<g clip-path="url(#clip0_101_149)">
<mask id="mask0_101_149" style="mask-type:luminance" maskUnits="userSpaceOnUse" x="0" y="0" width="201" height="40">
<path d="M0 0H201V40H0V0Z" fill="white"/>
</mask>
<g mask="url(#mask0_101_149)">
<path d="M198 11H157C156.204 11 155.441 11.3161 154.879 11.8787C154.316 12.4413 154 13.2044 154 14V27C154 27.7956 154.316 28.5587 154.879 29.1213C155.441 29.6839 156.204 30 157 30H198C198.796 30 199.559 29.6839 200.121 29.1213C200.684 28.5587 201 27.7956 201 27V14C201 13.2044 200.684 12.4413 200.121 11.8787C199.559 11.3161 198.796 11 198 11Z" fill="#868DD5"/>
<path d="M164.496 19.834C165.196 20.086 166.134 20.772 166.134 22.284C166.134 24.006 164.944 25 162.97 25H158.966V15.2H162.998C164.93 15.2 165.854 16.208 165.854 17.65C165.854 18.826 165.21 19.414 164.496 19.75V19.834ZM160.772 16.684V19.218H162.718C163.558 19.218 164.006 18.714 164.006 17.944C164.006 17.16 163.502 16.684 162.746 16.684H160.772ZM162.802 23.516C163.754 23.516 164.244 22.942 164.244 22.144C164.244 21.318 163.712 20.702 162.802 20.702H160.772V23.516H162.802ZM170.963 23.39H175.863V25H169.157V15.2H175.723V16.81H170.963V19.246H175.065V20.814H170.963V23.39ZM185.606 15.2V16.852H182.834V25H180.986V16.852H178.214V15.2H185.606ZM193.795 25L192.997 22.634H189.329L188.531 25H186.557L190.057 15.2H192.283L195.769 25H193.795ZM189.833 21.108H192.493L191.219 17.328H191.107L189.833 21.108Z" fill="white"/>
</g>
<path d="M13.2585 24.0624C13.1677 26.2282 11.3304 27.9098 9.16461 27.9098H0V27.3262C0 27.0323 0.237759 26.7902 0.53604 26.7902H9.24676C10.8765 26.7902 12.195 25.4414 12.1475 23.803C12.0999 22.2252 10.7641 20.9888 9.18625 20.9888H0.00432034V20.4052C0.00432034 20.1112 0.242086 19.8735 0.540368 19.8735H9.00898C10.4875 19.8735 11.6892 18.6847 11.7152 17.2149C11.7411 15.7018 10.4615 14.4612 8.94848 14.4612H0.544687C0.250729 14.4612 0.00864776 14.2234 0.00864776 13.9251V13.3415H8.9355C11.0494 13.3415 12.8218 15.0275 12.8348 17.1414C12.8435 18.4728 12.1647 19.6487 11.1402 20.3404C12.4457 21.045 13.3233 22.4543 13.2585 24.0624Z" fill="white"/>
<path d="M31.1208 13.8776C31.1208 13.5836 31.3586 13.3415 31.6569 13.3415H32.2966V22.4802C32.2966 25.5711 29.7548 28.0784 26.6509 28.0179C23.6162 27.9617 21.217 25.4198 21.217 22.3851V13.3415H21.8568C22.1507 13.3415 22.3928 13.5793 22.3928 13.8776V22.4024C22.3928 24.7843 24.269 26.7902 26.6509 26.8464C29.1063 26.9026 31.1208 24.9227 31.1208 22.4846V13.8776Z" fill="white"/>
<path d="M42.2872 13.3415V27.3867C42.2872 27.6807 42.0491 27.9185 41.7553 27.9185H41.094V13.8776C41.094 13.5836 41.3316 13.3458 41.6254 13.3458H42.2872V13.3415Z" fill="white"/>
<path d="M75.1067 15.5549C76.447 16.9209 77.1862 18.7236 77.1862 20.63C77.1862 22.5364 76.447 24.3391 75.1067 25.7051C73.7711 27.0669 71.9768 27.8493 70.0617 27.9055H70.0444L64.9781 27.9098V27.3219C64.9781 27.0279 65.2158 26.7902 65.5096 26.7902L70.0361 26.7858C73.4123 26.6821 76.0579 23.9803 76.0579 20.6257C76.0579 17.2754 73.4123 14.5692 70.0361 14.4655L65.5096 14.4568C65.2158 14.4568 64.9781 14.2191 64.9781 13.9251V13.3372L70.0574 13.3458C71.9811 13.4107 73.7711 14.1931 75.1067 15.5549Z" fill="white"/>
<path d="M82.2784 27.2787C82.2784 26.8507 82.6285 26.5006 83.0565 26.5006C83.4846 26.5006 83.8347 26.8507 83.8347 27.2787C83.8347 27.7067 83.4846 28.0568 83.0565 28.0568C82.6285 28.0568 82.2784 27.7067 82.2784 27.2787Z" fill="white"/>
<path d="M103.993 20.6084C103.993 24.8059 100.577 28.2168 96.3842 28.2168C92.1909 28.2168 88.7758 24.8016 88.7758 20.6084C88.7758 16.4151 92.1909 13 96.3842 13C100.582 13.0043 103.993 16.4151 103.993 20.6084ZM102.825 20.6084C102.825 17.0592 99.9378 14.1672 96.3842 14.1672C92.8349 14.1672 89.943 17.0549 89.943 20.6084C89.943 24.1618 92.8306 27.0496 96.3842 27.0496C99.9378 27.0496 102.825 24.1618 102.825 20.6084Z" fill="white"/>
<path d="M112.872 22.4629C112.872 22.7569 112.634 22.999 112.34 22.999H111.653V13.3415H112.358C112.526 13.3415 112.686 13.4237 112.786 13.5577L122.123 26.1331V13.8905C122.123 13.5966 122.361 13.3545 122.659 13.3545H123.346V27.9314H122.205C122.037 27.9314 121.877 27.8493 121.777 27.7153L112.872 15.8921V22.4629Z" fill="white"/>
<path d="M131.845 13.8776C131.845 13.5836 132.083 13.3458 132.381 13.3458H145V13.9597C145 14.2537 144.762 14.4914 144.468 14.4914H131.85V13.8776H131.845ZM144.996 20.483C144.996 20.777 144.758 21.0191 144.459 21.0191L131.841 21.0234V20.4095C131.841 20.1156 132.079 19.8778 132.377 19.8778L144.996 19.8735V20.483ZM131.845 27.4256V26.8118H144.464C144.758 26.8118 144.996 27.0496 144.996 27.3478V27.9617H132.377C132.087 27.9574 131.845 27.7196 131.845 27.4256Z" fill="white"/>
<path d="M60.0457 27.3262C60.0457 27.0323 59.8336 26.7902 59.57 26.7902H58.0224C57.8021 26.7902 57.5814 26.7729 57.3654 26.7469C54.4948 26.3838 52.2642 23.7598 52.2642 20.6819V13.8776C52.2642 13.5836 52.0266 13.3415 51.7284 13.3415H51.0667V20.6819C51.0667 24.4558 53.8854 27.564 57.465 27.8796C57.6463 27.8969 57.8324 27.9098 58.0181 27.9098H58.0657H58.07H60.0413V27.3262H60.0457Z" fill="white"/>
</g>
<defs>
<clipPath id="clip0_101_149">
<rect width="201" height="40" fill="white"/>
</clipPath>
</defs>
</svg>
