<svg width="230" height="40" viewBox="0 0 230 40" fill="none" xmlns="http://www.w3.org/2000/svg">
<path d="M214.852 12.5H158.149C157.049 12.5003 155.994 12.9375 155.215 13.7155C154.437 14.4935 154 15.5487 154 16.649V27.351C154 28.4513 154.437 29.5065 155.215 30.2845C155.994 31.0625 157.049 31.4997 158.149 31.5H214.852C215.952 31.4997 217.007 31.0625 217.785 30.2845C218.564 29.5065 219.001 28.4513 219.001 27.351V16.649C219.001 15.5487 218.564 14.4935 217.785 13.7155C217.007 12.9375 215.952 12.5003 214.852 12.5Z" fill="#868DD5"/>
<path d="M162.985 26.312L160.489 18.688C160.53 18.9573 160.577 19.304 160.632 19.728C160.687 20.148 160.732 20.6147 160.769 21.128C160.81 21.644 160.831 22.18 160.831 22.736V26.312H158.923V16.835H161.72L164.14 24.418C164.051 23.8663 163.975 23.3125 163.914 22.757C163.832 21.9962 163.793 21.2313 163.798 20.466V16.836H165.706V26.312H162.985ZM173.596 16.835V18.475H171.641V24.664H173.596V26.312H167.443V24.664H169.398V18.476H167.443V16.836L173.596 16.835ZM179.073 26.545C177.728 26.545 176.7 26.121 175.989 25.273C175.282 24.4197 174.929 23.1797 174.929 21.553C174.929 20.4777 175.125 19.573 175.518 18.839C175.91 18.1003 176.439 17.542 177.104 17.164C177.769 16.7853 178.512 16.596 179.333 16.596C180.026 16.596 180.61 16.7027 181.083 16.916C181.557 17.1313 181.979 17.4143 182.348 17.765L181.172 18.982C180.925 18.7543 180.646 18.5633 180.345 18.415C180.061 18.2872 179.753 18.224 179.442 18.23C179.037 18.2241 178.641 18.3436 178.307 18.572C177.979 18.7947 177.719 19.1527 177.527 19.646C177.336 20.1327 177.241 20.7727 177.241 21.566C177.241 22.3913 177.307 23.048 177.439 23.536C177.576 24.024 177.781 24.375 178.054 24.589C178.327 24.7983 178.674 24.903 179.094 24.903C179.317 24.903 179.527 24.878 179.723 24.828C179.919 24.7733 180.101 24.7027 180.27 24.616V22.45H179.08L178.861 20.877H182.389V25.587C181.91 25.8825 181.395 26.1173 180.858 26.286C180.28 26.4649 179.678 26.5523 179.073 26.545ZM188.078 26.312V22.319H185.781V26.312H183.538V16.835H185.781V20.473H188.078V16.835H190.321V26.312H188.078ZM196.242 18.552V26.312H193.999V18.552H191.339V16.835H199.011L198.779 18.552H196.242ZM200.508 26.312V16.835H202.751V24.541H206.861L206.628 26.311L200.508 26.312ZM212.665 22.757V26.312H210.423V22.77L207.333 16.835H209.787L211.585 20.917L213.397 16.835H215.756L212.665 22.757Z" fill="white"/>
<path d="M13.2585 25.0624C13.1677 27.2282 11.3304 28.9099 9.16461 28.9099H0V28.3262C0 28.0323 0.237759 27.7902 0.53604 27.7902H9.24676C10.8765 27.7902 12.195 26.4415 12.1475 24.8031C12.0999 23.2252 10.7641 21.9888 9.18625 21.9888H0.00432034V21.4052C0.00432034 21.1113 0.242086 20.8735 0.540368 20.8735H9.00898C10.4875 20.8735 11.6892 19.6847 11.7152 18.2149C11.7411 16.7019 10.4615 15.4612 8.94848 15.4612H0.544687C0.250729 15.4612 0.00864776 15.2234 0.00864776 14.9251V14.3415H8.9355C11.0494 14.3415 12.8218 16.0275 12.8348 18.1414C12.8435 19.4729 12.1647 20.6487 11.1402 21.3404C12.4457 22.045 13.3233 23.4543 13.2585 25.0624Z" fill="white"/>
<path d="M31.1208 14.8776C31.1208 14.5836 31.3586 14.3415 31.6569 14.3415H32.2966V23.4802C32.2966 26.5711 29.7548 29.0784 26.6509 29.0179C23.6162 28.9617 21.217 26.4198 21.217 23.3851V14.3415H21.8568C22.1507 14.3415 22.3928 14.5793 22.3928 14.8776V23.4024C22.3928 25.7844 24.269 27.7902 26.6509 27.8464C29.1063 27.9026 31.1208 25.9227 31.1208 23.4846V14.8776Z" fill="white"/>
<path d="M42.2872 14.3415V28.3868C42.2872 28.6807 42.0491 28.9185 41.7553 28.9185H41.094V14.8776C41.094 14.5836 41.3316 14.3458 41.6254 14.3458H42.2872V14.3415Z" fill="white"/>
<path d="M75.1067 16.5549C76.447 17.9209 77.1862 19.7236 77.1862 21.63C77.1862 23.5364 76.447 25.3391 75.1067 26.7051C73.7711 28.0669 71.9768 28.8493 70.0617 28.9055H70.0444L64.9781 28.9098V28.3219C64.9781 28.028 65.2158 27.7902 65.5096 27.7902L70.0361 27.7859C73.4123 27.6821 76.0579 24.9803 76.0579 21.6257C76.0579 18.2754 73.4123 15.5692 70.0361 15.4655L65.5096 15.4568C65.2158 15.4568 64.9781 15.2191 64.9781 14.9251V14.3372L70.0574 14.3458C71.9811 14.4107 73.7711 15.1931 75.1067 16.5549Z" fill="white"/>
<path d="M82.2784 28.2787C82.2784 27.8507 82.6285 27.5006 83.0565 27.5006C83.4846 27.5006 83.8347 27.8507 83.8347 28.2787C83.8347 28.7067 83.4846 29.0568 83.0565 29.0568C82.6285 29.0568 82.2784 28.7067 82.2784 28.2787Z" fill="white"/>
<path d="M103.993 21.6084C103.993 25.8059 100.577 29.2168 96.3842 29.2168C92.1909 29.2168 88.7758 25.8016 88.7758 21.6084C88.7758 17.4151 92.1909 14 96.3842 14C100.582 14.0043 103.993 17.4151 103.993 21.6084ZM102.825 21.6084C102.825 18.0592 99.9378 15.1672 96.3842 15.1672C92.8349 15.1672 89.943 18.0549 89.943 21.6084C89.943 25.1618 92.8306 28.0496 96.3842 28.0496C99.9378 28.0496 102.825 25.1618 102.825 21.6084Z" fill="white"/>
<path d="M112.872 23.4629C112.872 23.7569 112.634 23.999 112.34 23.999H111.653V14.3415H112.358C112.526 14.3415 112.686 14.4237 112.786 14.5577L122.123 27.1331V14.8906C122.123 14.5966 122.361 14.3545 122.659 14.3545H123.346V28.9315H122.205C122.037 28.9315 121.877 28.8493 121.777 28.7153L112.872 16.8921V23.4629Z" fill="white"/>
<path d="M131.845 14.8775C131.845 14.5836 132.083 14.3458 132.381 14.3458H145V14.9597C145 15.2536 144.762 15.4914 144.468 15.4914H131.85V14.8775H131.845ZM144.996 21.483C144.996 21.7769 144.758 22.019 144.459 22.019L131.841 22.0234V21.4095C131.841 21.1156 132.079 20.8778 132.377 20.8778L144.996 20.8735V21.483ZM131.845 28.4256V27.8118H144.464C144.758 27.8118 144.996 28.0495 144.996 28.3478V28.9617H132.377C132.087 28.9574 131.845 28.7196 131.845 28.4256Z" fill="white"/>
<path d="M60.0457 28.3262C60.0457 28.0323 59.8336 27.7902 59.57 27.7902H58.0224C57.8021 27.7902 57.5814 27.7729 57.3654 27.747C54.4948 27.3838 52.2642 24.7598 52.2642 21.6819V14.8776C52.2642 14.5836 52.0266 14.3415 51.7284 14.3415H51.0667V21.6819C51.0667 25.4558 53.8854 28.564 57.465 28.8796C57.6463 28.8969 57.8324 28.9099 58.0181 28.9099H58.0657H58.07H60.0413V28.3262H60.0457Z" fill="white"/>
</svg>
