<svg width="369" height="105" viewBox="0 0 369 105" fill="none" xmlns="http://www.w3.org/2000/svg">
<path d="M34.1221 61.3799C33.8913 66.8852 29.2211 71.1598 23.7158 71.1598H0.419983V69.6763C0.419983 68.9291 1.02435 68.3137 1.78256 68.3137H23.9246C28.0673 68.3137 31.4188 64.8853 31.298 60.7206C31.1771 56.7097 27.7816 53.567 23.7708 53.567H0.430965V52.0835C0.430965 51.3363 1.03535 50.7319 1.79356 50.7319H23.3202C27.0784 50.7319 30.1332 47.7101 30.1991 43.9739C30.265 40.1279 27.0124 36.9742 23.1664 36.9742H1.80454C1.05732 36.9742 0.441965 36.3698 0.441965 35.6116V34.1281H23.1334C28.5069 34.1281 33.0122 38.4137 33.0452 43.7871C33.0672 47.1716 31.3419 50.1605 28.7376 51.9187C32.0562 53.7099 34.2869 57.2921 34.1221 61.3799Z" fill="black"/>
<path d="M79.527 35.4907C79.527 34.7435 80.1314 34.1281 80.8896 34.1281H82.5159V57.3581C82.5159 65.2149 76.0546 71.5883 68.1648 71.4345C60.4508 71.2916 54.3521 64.8303 54.3521 57.1163V34.1281H55.9784C56.7256 34.1281 57.341 34.7325 57.341 35.4907V57.1603C57.341 63.215 62.1101 68.3137 68.1648 68.4566C74.4063 68.5994 79.527 63.5666 79.527 57.3691V35.4907Z" fill="black"/>
<path d="M107.911 34.1281V69.8301C107.911 70.5774 107.306 71.1817 106.559 71.1817H104.878V35.4907C104.878 34.7435 105.482 34.1391 106.229 34.1391H107.911V34.1281Z" fill="black"/>
<path d="M191.336 39.7543C194.743 43.2267 196.622 47.809 196.622 52.6549C196.622 57.5009 194.743 62.0832 191.336 65.5556C187.941 69.017 183.38 71.0059 178.512 71.1488H178.468L165.59 71.1598V69.6653C165.59 68.9181 166.194 68.3137 166.941 68.3137L178.447 68.3027C187.029 68.039 193.754 61.1711 193.754 52.644C193.754 44.1278 187.029 37.2489 178.447 36.9852L166.941 36.9632C166.194 36.9632 165.59 36.3588 165.59 35.6116V34.1172L178.501 34.1391C183.391 34.304 187.941 36.2929 191.336 39.7543Z" fill="black"/>
<path d="M209.566 69.5554C209.566 68.4675 210.456 67.5775 211.544 67.5775C212.632 67.5775 213.522 68.4675 213.522 69.5554C213.522 70.6433 212.632 71.5334 211.544 71.5334C210.456 71.5334 209.566 70.6433 209.566 69.5554Z" fill="black"/>
<path d="M264.762 52.6C264.762 63.2699 256.081 71.94 245.422 71.94C234.763 71.94 226.082 63.2589 226.082 52.6C226.082 41.941 234.763 33.26 245.422 33.26C256.092 33.271 264.762 41.941 264.762 52.6ZM261.795 52.6C261.795 43.5783 254.455 36.227 245.422 36.227C236.4 36.227 229.049 43.5674 229.049 52.6C229.049 61.6326 236.389 68.973 245.422 68.973C254.455 68.973 261.795 61.6326 261.795 52.6Z" fill="black"/>
<path d="M287.333 57.3141C287.333 58.0613 286.728 58.6767 285.981 58.6767H284.234V34.1281H286.025C286.454 34.1281 286.86 34.3369 287.113 34.6776L310.848 66.6434V35.5237C310.848 34.7765 311.453 34.1611 312.211 34.1611H313.958V71.2147H311.057C310.629 71.2147 310.222 71.0059 309.969 70.6653L287.333 40.6114V57.3141Z" fill="black"/>
<path d="M335.562 35.4907C335.562 34.7435 336.166 34.1391 336.924 34.1391H369V35.6995C369 36.4467 368.396 37.0511 367.648 37.0511H335.573V35.4907H335.562ZM368.989 52.2813C368.989 53.0285 368.385 53.6439 367.626 53.6439L335.551 53.6549V52.0945C335.551 51.3473 336.155 50.7429 336.913 50.7429L368.989 50.7319V52.2813ZM335.562 69.929V68.3686H367.637C368.385 68.3686 368.989 68.973 368.989 69.7312V71.2916H336.913C336.177 71.2806 335.562 70.6763 335.562 69.929Z" fill="black"/>
<path d="M153.052 69.6763C153.052 68.9291 152.513 68.3137 151.843 68.3137H147.909C147.349 68.3137 146.788 68.2698 146.239 68.2038C138.942 67.2808 133.272 60.6107 133.272 52.7868V35.4907C133.272 34.7435 132.668 34.1281 131.91 34.1281H130.228V52.7868C130.228 62.3799 137.393 70.2807 146.492 71.0828C146.953 71.1268 147.426 71.1598 147.898 71.1598H148.019H148.03H153.041V69.6763H153.052Z" fill="black"/>
</svg>
