<svg width="32" height="16" viewBox="0 0 32 16" fill="none" xmlns="http://www.w3.org/2000/svg">
<mask id="mask0_101_366" style="mask-type:luminance" maskUnits="userSpaceOnUse" x="10" y="2" width="12" height="12">
<path d="M22 2H10V14H22V2Z" fill="white"/>
</mask>
<g mask="url(#mask0_101_366)">
<path d="M21.7064 10.5333C21.633 12.2 20.055 13.5 18.2202 13.5H10.4404V13.0667C10.4404 12.8333 10.6606 12.6667 10.8807 12.6667H18.2569C19.6514 12.6667 20.7523 11.6333 20.7156 10.3667C20.6789 9.13333 19.5413 8.2 18.1835 8.2H10.4404V7.76666C10.4404 7.53333 10.6606 7.36666 10.8807 7.36666H18.0734C19.3211 7.36666 20.3486 6.43333 20.3853 5.3C20.422 4.13333 19.3211 3.16666 18.0367 3.16666H10.8807C10.6239 3.16666 10.4404 2.96666 10.4404 2.76666V2.26666H18C19.7982 2.26666 21.3028 3.56666 21.3028 5.2C21.3028 6.23333 20.7156 7.13333 19.8716 7.66666C21.0092 8.2 21.7431 9.3 21.7064 10.5333Z" fill="white"/>
</g>
</svg>
